<svg xmlns="http://www.w3.org/2000/svg" width="64" height="64"><g transform="translate(-1944.383 -800.166)"><path fill="none" stroke="#f06a58" stroke-linecap="round" stroke-linejoin="round" d="m 1976.3831,814.16615 0,12.47915 m 0,11.04854 0,12.47231"/><path fill="none" stroke="#f06a58" stroke-linejoin="round" d="M1974.9689 814.87325l1.4142-1.4142 1.4142 1.4142M1974.9689 849.45905l1.4142 1.4142 1.4142-1.4142"/><path fill="none" stroke="#f06a58" stroke-linecap="round" stroke-linejoin="round" d="m 1994.3831,832.16615 -12.3908,0 m -11.2253,0 -12.3839,0"/><path fill="none" stroke="#f06a58" stroke-linejoin="round" d="M1993.676 830.75194l1.4142 1.41422-1.4142 1.4142M1959.0902 830.75194l-1.4142 1.41422 1.4142 1.4142"/><path fill="none" stroke="#f06a58" stroke-linecap="round" stroke-linejoin="round" d="m 1989.1111,844.89411 -8.7947,-8.79463 m -7.9332,-7.93328 -8.728,-8.72793"/><path fill="none" stroke="#f06a58" stroke-linejoin="round" d="M1989.6111 843.39412l0 1.99999-2 0M1965.1552 818.93826l-2 .00002 0 1.99998"/><path fill="none" stroke="#f06a58" stroke-linecap="round" stroke-linejoin="round" d="m 1963.6552,844.89408 8.7912,-8.7912 m 7.955,-7.95495 8.7097,-8.7097"/><path fill="none" stroke="#f06a58" stroke-linejoin="round" d="M1965.1552 845.39408l-2-.00002 0-1.99998M1989.6111 820.93822l-.0001-1.99999-1.9999 0"/><path fill="none" stroke="#6f7c91" stroke-linejoin="round" stroke-width="2.369" d="m 39.067653,32.445358 c 0,3.270641 -2.651378,5.92202 -5.922019,5.92202 -3.270641,0 -5.92202,-2.651379 -5.92202,-5.92202 0,-3.270641 2.651379,-5.922019 5.92202,-5.922019 3.270641,0 5.922019,2.651378 5.922019,5.922019 z" transform="translate(1962.39 796.47) scale(.42215)"/><path fill="none" stroke="#6f7c91" stroke-linejoin="round" stroke-width="2.369" d="m 39.067653,32.445358 c 0,3.270641 -2.651378,5.92202 -5.922019,5.92202 -3.270641,0 -5.92202,-2.651379 -5.92202,-5.92202 0,-3.270641 2.651379,-5.922019 5.92202,-5.922019 3.270641,0 5.922019,2.651378 5.922019,5.922019 z" transform="rotate(90 596.953 1415.127) scale(.42215)"/><path fill="none" stroke="#6f7c91" stroke-linejoin="round" stroke-width="2.369" d="m 39.067653,32.445358 c 0,3.270641 -2.651378,5.92202 -5.922019,5.92202 -3.270641,0 -5.92202,-2.651379 -5.92202,-5.92202 0,-3.270641 2.651379,-5.922019 5.92202,-5.922019 3.270641,0 5.922019,2.651378 5.922019,5.922019 z" transform="rotate(45 33.764 2802.725) scale(.42215)"/><path fill="none" stroke="#6f7c91" stroke-linejoin="round" stroke-width="2.369" d="m 39.067653,32.445358 c 0,3.270641 -2.651378,5.92202 -5.922019,5.92202 -3.270641,0 -5.92202,-2.651379 -5.92202,-5.92202 0,-3.270641 2.651379,-5.922019 5.92202,-5.922019 3.270641,0 5.922019,2.651378 5.922019,5.922019 z" transform="rotate(135 830.15 840.27) scale(.4221)"/><path fill="none" stroke="#6f7c91" stroke-linejoin="round" stroke-width="2.369" d="m 39.067653,32.445358 c 0,3.270641 -2.651378,5.92202 -5.922019,5.92202 -3.270641,0 -5.92202,-2.651379 -5.92202,-5.92202 0,-3.270641 2.651379,-5.922019 5.92202,-5.922019 3.270641,0 5.922019,2.651378 5.922019,5.922019 z" transform="rotate(180 995.188 433.932) scale(.42215)"/><path fill="none" stroke="#6f7c91" stroke-linejoin="round" stroke-width="2.369" d="m 39.067653,32.445358 c 0,3.270641 -2.651378,5.92202 -5.922019,5.92202 -3.270641,0 -5.92202,-2.651379 -5.92202,-5.92202 0,-3.270641 2.651379,-5.922019 5.92202,-5.922019 3.270641,0 5.922019,2.651378 5.922019,5.922019 z" transform="rotate(-135 1160.133 27.507) scale(.42215)"/><path fill="none" stroke="#6f7c91" stroke-linejoin="round" stroke-width="2.369" d="m 39.067653,32.445358 c 0,3.270641 -2.651378,5.92202 -5.922019,5.92202 -3.270641,0 -5.92202,-2.651379 -5.92202,-5.92202 0,-3.270641 2.651379,-5.922019 5.92202,-5.922019 3.270641,0 5.922019,2.651378 5.922019,5.922019 z" transform="rotate(-90 1393.422 -547.264) scale(.42215)"/><path fill="none" stroke="#6f7c91" stroke-linejoin="round" stroke-width="2.369" d="m 39.067653,32.445358 c 0,3.270641 -2.651378,5.92202 -5.922019,5.92202 -3.270641,0 -5.92202,-2.651379 -5.92202,-5.92202 0,-3.270641 2.651379,-5.922019 5.92202,-5.922019 3.270641,0 5.922019,2.651378 5.922019,5.922019 z" transform="rotate(-45 1956.413 -1934.687) scale(.4221)"/><path fill="none" stroke="#6f7c91" stroke-linejoin="round" stroke-width="1.077" d="m 39.067653,32.445358 c 0,3.270641 -2.651378,5.92202 -5.922019,5.92202 -3.270641,0 -5.92202,-2.651379 -5.92202,-5.92202 0,-3.270641 2.651379,-5.922019 5.92202,-5.922019 3.270641,0 5.922019,2.651378 5.922019,5.922019 z" transform="translate(1945.6 802.033) scale(.92874)"/></g></svg>