<svg xmlns="http://www.w3.org/2000/svg" width="64" height="64"><g transform="translate(-1865.37 -1190.265)"><path fill="none" stroke="#359ec4" stroke-linecap="round" stroke-linejoin="round" stroke-width="1.371" d="m 35.771709,23.652972 6.250001,10.825318 -6.25,10.825319 -12.500001,0 -6.250001,-10.825318 6.25,-10.825319 z" transform="matrix(.72794 -.05804 .05791 .72634 1873.57 1191.736)"/><path fill="none" stroke="#359ec4" stroke-linecap="round" stroke-linejoin="round" stroke-width="1.371" d="m 35.771709,23.652972 6.250001,10.825318 -6.25,10.825319 -12.500001,0 -6.250001,-10.825318 6.25,-10.825319 z" transform="matrix(.72794 -.05804 .05791 .72634 1874.63 1207.53)"/><path fill="none" stroke="#359ec4" stroke-linecap="round" stroke-linejoin="round" d="M1893.0584 1223.1993l-3.964 8.1949-11.0494-2.8855 0-9.6028 10.0282-2.959zM1907.1632 1230.0121l9.7481-2.3639.033-10.7324-10.8971-2.4117-3.9347 8.2416z"/><path fill="none" stroke="#359ec4" stroke-linecap="round" stroke-linejoin="round" d="M1878.0895 1228.4366l-2.375 1.9375 6.4848 9.8277 12.0777 4.9848 0-6.0625 0 0-5.3454-7.7739zM1875.652 1230.2491l-1.5625-3.625 0-7.875 1.25-3.125 2.625 3.4375 0 9.25zM1875.402 1215.6241l4.375-8.8125 9.0625-6 3.1875 6.625-4.0625 8.4375-9.9375 3.0625z"/><path fill="none" stroke="#359ec4" stroke-linecap="round" stroke-linejoin="round" d="m 1888.9332,1200.7491 6.5625,-1.9375 6.8438,0.9063 -1.3476,7.1379 -9.0113,0.5587 z"/><path fill="none" stroke="#359ec4" stroke-linecap="round" stroke-linejoin="round" d="M1902.402 1199.7491l11.0884 5.3339 6.0991 9.9786-2.6875 2.125-10.8125-2.8125-5.125-7.5zM1919.652 1215.1866l1 4.1875 0 7-.9375 2.9375-2.75-1.875 0-10.1875z"/><path fill="none" stroke="#359ec4" stroke-linecap="round" stroke-linejoin="round" d="M1919.7145 1229.1866l-5.137 9.0379-8.613 5.7121-2.375-5.625 3.9375-8.375 9.5-2.25zM1905.8288 1243.9679l-5.9581 1.75-5.6562-.5625.031-6.0314 9.1768-.7187z"/><path fill="none" stroke="#f06a58" stroke-linecap="round" stroke-linejoin="round" d="m 1899.9332,1209.1241 3.6875,5.4687"/><path fill="none" stroke="#f2b150" stroke-linecap="round" stroke-linejoin="round" d="M1889.8087 1207.7738l-3.0054 5.8713M1887.7703 1204.0279l-5.5577 3.5521"/><path fill="none" stroke="#6f7c91" stroke-linecap="round" stroke-linejoin="round" d="m 1875.9649,1219.5479 -0.064,6.5955"/><path fill="none" stroke="#f06a58" stroke-linecap="round" stroke-linejoin="round" d="m 1900.879,1225.0408 -6.58,0.4564"/><path fill="none" stroke="#6f7c91" stroke-linecap="round" stroke-linejoin="round" d="m 1894.993,1236.9143 -3.7353,-5.4362"/><path fill="none" stroke="#359ec4" stroke-linecap="round" stroke-linejoin="round" d="m 1905.7913,1237.9815 2.8556,-5.9456"/><path fill="none" stroke="#f06a58" stroke-linecap="round" stroke-linejoin="round" d="M1918.9775 1225.7927l.0009-6.5958M1909.6395 1205.5005l-5.9115-2.9256"/><path fill="none" stroke="#6f7c91" stroke-linecap="round" stroke-linejoin="round" d="m 1891.9905,1242.1524 -6.0365,-2.658"/></g></svg>