<svg xmlns="http://www.w3.org/2000/svg" width="64" height="64"><g transform="translate(-1944.383 -1190.265)"><path fill="none" stroke="#359ec4" stroke-linecap="round" stroke-linejoin="round" d="m 59.57865,33.329243 c 0,13.52461 -10.963864,24.488474 -24.488474,24.488474 -13.524611,0 -24.488474,-10.963864 -24.488474,-24.488474 0,-13.524611 10.963863,-24.4884742 24.488474,-24.4884742 13.52461,0 24.488474,10.9638632 24.488474,24.4884742 z" transform="translate(1941.323 1188.936)"/><path fill="none" stroke="#f06a58" stroke-linecap="round" stroke-linejoin="round" d="m 53.57865,33.329243 c 0,10.210902 -8.277572,18.488474 -18.488474,18.488474 -10.210903,0 -18.488474,-8.277572 -18.488474,-18.488474 0,-10.210902 8.277571,-18.488474 18.488474,-18.488474 10.210902,0 18.488474,8.277572 18.488474,18.488474 z" transform="translate(1941.323 1188.936)"/><path fill="none" stroke="#f2b150" stroke-linecap="round" stroke-linejoin="round" d="m 47.588072,33.329243 c 0,6.902397 -5.595499,12.497896 -12.497896,12.497896 -6.902398,0 -12.497897,-5.595499 -12.497897,-12.497896 0,-6.902398 5.595499,-12.497896 12.497897,-12.497896 6.902397,0 12.497896,5.595498 12.497896,12.497896 z" transform="translate(1941.323 1188.936)"/><path fill="none" stroke="#359ec4" stroke-linecap="round" stroke-linejoin="round" d="m 28.599165,33.329242 c 1e-6,-3.584886 2.906125,-6.49101 6.491011,-6.491009 3.584886,0 6.49101,2.906124 6.49101,6.49101" transform="translate(1941.323 1188.936)"/><path fill="none" stroke="#6f7c91" stroke-linejoin="round" d="M1984.3677 1221.1717c-.4944.7191-1.0674 1.4188-1.5293 2.0175l-1.4685-2.0114M1990.3921 1221.3143c-.4987.7162-1.0759 1.4125-1.5414 2.0082l-1.4564-2.0201M1965.4139 1223.2906c-.4572-.7434-.9938-1.4714-1.4247-2.0927l-1.5689 1.9341M1996.3765 1221.3142c-.4988.7162-1.0759 1.4126-1.5414 2.0082l-1.4564-2.02M2002.3279 1221.2781c-.4805.7286-1.0399 1.4392-1.4902 2.0466l-1.5069-1.9827M1956.4819 1223.1878c.5038-.7125 1.0859-1.4047 1.5555-1.9973l1.4422 2.0304M1950.4384 1223.1571c.5136-.7056 1.1053-1.3897 1.5831-1.9757l1.4138 2.0503"/></g></svg>