<svg xmlns="http://www.w3.org/2000/svg" width="64" height="64"><g transform="translate(-1391.296 -1346.304)"><path fill="none" stroke="#f2b150" d="M1401.3018 1389.779l0-4.3291M1401.3018 1371.0621l0-4.2327M1423.2884 1389.779l0-4.3291M1423.2884 1371.0621l0-4.2327M1445.2907 1389.779l0-4.3291M1445.2907 1371.0621l0-4.2327M1392.2963 1367.3042l6.977 0m3.9554 0l18.0832 0m3.9375 0l18.0469 0m4.0625 0l6.9375 0"/><path fill="none" stroke="#6f7c91" stroke-linecap="round" stroke-linejoin="round" stroke-width="2.858" d="M 44.614921,24.334828 50.074715,44.711057 35.15828,59.627491 14.782052,54.167697 9.3222578,33.791469 24.238692,18.875034 z" transform="matrix(.34307 .0892 -.09192 .3329 1394.721 1362.588)"/><path fill="none" stroke="#f06a58" stroke-linecap="round" stroke-linejoin="round" stroke-width="3.083" d="m 46.934214,35.141205 c 0,6.809768 -5.520408,12.330175 -12.330176,12.330175 -6.809768,0 -12.330175,-5.520407 -12.330175,-12.330175 0,-6.809768 5.520407,-12.330176 12.330175,-12.330176 6.809768,0 12.330176,5.520408 12.330176,12.330176 z" transform="matrix(.3244 0 0 .3244 1390.076 1366.905)"/><path fill="none" stroke="#6f7c91" stroke-linecap="round" stroke-linejoin="round" stroke-width="2.858" d="M 44.614921,24.334828 50.074715,44.711057 35.15828,59.627491 14.782052,54.167697 9.3222578,33.791469 24.238692,18.875034 z" transform="matrix(.34307 .0892 -.09192 .3329 1416.708 1362.588)"/><path fill="none" stroke="#f06a58" stroke-linecap="round" stroke-linejoin="round" stroke-width="3.083" d="m 46.934214,35.141205 c 0,6.809768 -5.520408,12.330175 -12.330176,12.330175 -6.809768,0 -12.330175,-5.520407 -12.330175,-12.330175 0,-6.809768 5.520407,-12.330176 12.330175,-12.330176 6.809768,0 12.330176,5.520408 12.330176,12.330176 z" transform="matrix(.3244 0 0 .3244 1412.063 1366.905)"/><path fill="none" stroke="#6f7c91" stroke-linecap="round" stroke-linejoin="round" stroke-width="2.858" d="M 44.614921,24.334828 50.074715,44.711057 35.15828,59.627491 14.782052,54.167697 9.3222578,33.791469 24.238692,18.875034 z" transform="matrix(.34307 .0892 -.09192 .3329 1438.71 1362.588)"/><path fill="none" stroke="#f06a58" stroke-linecap="round" stroke-linejoin="round" stroke-width="3.083" d="m 46.934214,35.141205 c 0,6.809768 -5.520408,12.330175 -12.330176,12.330175 -6.809768,0 -12.330175,-5.520407 -12.330175,-12.330175 0,-6.809768 5.520407,-12.330176 12.330175,-12.330176 6.809768,0 12.330176,5.520408 12.330176,12.330176 z" transform="matrix(.3244 0 0 .3244 1434.065 1366.905)"/></g></svg>