<svg xmlns="http://www.w3.org/2000/svg" width="64" height="64"><g transform="translate(-1707.346 -1346.304)"><path fill="none" stroke="#6f7c91" stroke-linecap="round" stroke-linejoin="round" d="m 1717.2108,1393.9794 45.9178,0"/><path fill="none" stroke="#359ec4" stroke-linecap="round" stroke-linejoin="round" stroke-width=".56" d="m 26.001738,39.823129 c 0.09768,-4.969602 4.20553,-8.919074 9.175133,-8.821391 4.828058,0.0949 8.720779,3.983188 8.821183,8.811135" transform="matrix(1.78386 0 0 1.78528 1670.82 1322.836)"/><path fill="none" stroke="#6f7c91" stroke-linejoin="round" d="m 1760.9339,1392.2691 c 0.8106,0.5601 1.5993,1.2091 2.274,1.7323 l -2.2734,1.6553"/><path fill="none" stroke="#6f7c91" stroke-linecap="round" stroke-linejoin="round" d="m 1717.208,1393.8332 0,-32.827"/><path fill="none" stroke="#6f7c91" stroke-linejoin="round" d="m 1715.4839,1363.2257 c 0.5601,-0.8106 1.2091,-1.5993 1.7323,-2.274 l 1.6553,2.2734"/><path fill="none" stroke="#f2b150" stroke-linecap="round" stroke-linejoin="round" d="m 1734.708,1365.4582 c 0,0 0,7.2247 0,17 0,9.7753 -17.5,11.5 -17.5,11.5 0.5906,-3.2834 7.5,-15.5 19.5,-15.5 l 13,0"/><path fill="none" stroke="#f06a58" stroke-linecap="round" stroke-linejoin="round" d="m 1717.708,1393.4582 27,-24"/></g></svg>